# xmcd
#
# Track frame offsets:
#	150
#	18212
#	32048
#	39345
#	52840
#	62202
#	73495
#	87018
#	109175
#
# Disc length: 1624 seconds
#
# Revision: 0
# Processed by: cddbd v1.5.2PL0 Copyright (c) Steve Scherf et al.
# Submitted via: EZCDAudioConverter 1.3.4.1
#
DISCID=70065609
DTITLE=Morbid Holocaust
DYEAR=2013
DGENRE=Black/Thrash Metal
TTITLE0=Holocaust
TTITLE1=Buried Under Genocide
TTITLE2=Kristallnacht
TTITLE3=Evoke The Black Death
TTITLE4=Treblinka
TTITLE5=Evil Incarnate
TTITLE6=Outro
TTITLE7=Massacre Song From The Devastated Lands (Vlad Tepes Cover)
TTITLE8=Buried Under Genocide (2013 Version)
EXTD=
EXTT0=
EXTT1=
EXTT2=
EXTT3=
EXTT4=
EXTT5=
EXTT6=
EXTT7=
EXTT8=
PLAYORDER=
